<svg width="24" height="24" viewBox="0 0 24 24" fill="none" xmlns="http://www.w3.org/2000/svg">
<path d="M12 18.5961C15.643 18.5961 18.5962 15.6429 18.5962 12C18.5962 8.35701 15.643 5.40381 12 5.40381C8.35705 5.40381 5.40385 8.35701 5.40385 12C5.40385 15.6429 8.35705 18.5961 12 18.5961Z" fill="#F2C94C"/>
<path d="M3.8287 12C3.8287 11.6117 3.51389 11.2969 3.12558 11.2969H0.703125C0.314812 11.2969 0 11.6117 0 12C0 12.3883 0.314812 12.7031 0.703125 12.7031H3.12558C3.51389 12.7031 3.8287 12.3883 3.8287 12Z" fill="#F2C94C"/>
<path d="M4.50919 3.51475C4.23464 3.2402 3.78942 3.2402 3.51483 3.51475C3.24024 3.7893 3.24024 4.23452 3.51483 4.50911L5.22774 6.22202C5.36503 6.35932 5.54498 6.42799 5.72489 6.42799C5.9048 6.42799 6.0848 6.35932 6.22205 6.22202C6.49664 5.94747 6.49664 5.50225 6.22205 5.22766L4.50919 3.51475Z" fill="#F2C94C"/>
<path d="M12 0C11.6117 0 11.2969 0.314812 11.2969 0.703125V3.12558C11.2969 3.51389 11.6117 3.8287 12 3.8287C12.3883 3.8287 12.7031 3.51389 12.7031 3.12558V0.703125C12.7031 0.314812 12.3883 0 12 0Z" fill="#F2C94C"/>
<path d="M18.2751 6.42799C18.4551 6.42799 18.635 6.35932 18.7723 6.22202L20.4852 4.50911C20.7598 4.23456 20.7598 3.78934 20.4852 3.51475C20.2106 3.2402 19.7654 3.2402 19.4908 3.51475L17.7779 5.22766C17.5033 5.50221 17.5033 5.94743 17.7779 6.22202C17.9152 6.35932 18.0952 6.42799 18.2751 6.42799Z" fill="#F2C94C"/>
<path d="M23.2969 11.2969H20.8744C20.4861 11.2969 20.1713 11.6117 20.1713 12C20.1713 12.3883 20.4861 12.7031 20.8744 12.7031H23.2969C23.6852 12.7031 24 12.3883 24 12C24 11.6117 23.6852 11.2969 23.2969 11.2969Z" fill="#F2C94C"/>
<path d="M18.7723 17.7779C18.4978 17.5034 18.0526 17.5034 17.778 17.7779C17.5034 18.0525 17.5034 18.4977 17.778 18.7723L19.4909 20.4852C19.6282 20.6225 19.8081 20.6912 19.988 20.6912C20.1679 20.6912 20.3479 20.6225 20.4852 20.4852C20.7598 20.2106 20.7598 19.7654 20.4852 19.4908L18.7723 17.7779Z" fill="#F2C94C"/>
<path d="M12 20.1714C11.6117 20.1714 11.2969 20.4862 11.2969 20.8745V23.2969C11.2969 23.6853 11.6117 24.0001 12 24.0001C12.3883 24.0001 12.7031 23.6853 12.7031 23.2969V20.8745C12.7031 20.4862 12.3883 20.1714 12 20.1714Z" fill="#F2C94C"/>
<path d="M5.22774 17.778L3.51483 19.4909C3.24024 19.7654 3.24024 20.2106 3.51483 20.4852C3.65213 20.6225 3.83208 20.6912 4.01198 20.6912C4.19189 20.6912 4.37189 20.6225 4.50914 20.4852L6.22205 18.7723C6.49664 18.4978 6.49664 18.0526 6.22205 17.778C5.94755 17.5034 5.50233 17.5034 5.22774 17.778Z" fill="#F2C94C"/>
<path d="M12.019 20.1724V23.9991C12.3985 23.9889 12.7031 23.6788 12.7031 23.2969V20.8745C12.7031 20.4926 12.3985 20.1825 12.019 20.1724Z" fill="#F2C94C"/>
<path d="M12.019 0.000976562V3.82776C12.3985 3.81754 12.7031 3.50746 12.7031 3.12557V0.703117C12.7031 0.321227 12.3985 0.0111484 12.019 0.000976562Z" fill="#F2C94C"/>
</svg>
